<?xml version="1.0" encoding="UTF-8" standalone="no"?>
<svg
   xmlns:dc="http://purl.org/dc/elements/1.1/"
   xmlns:cc="http://creativecommons.org/ns#"
   xmlns:rdf="http://www.w3.org/1999/02/22-rdf-syntax-ns#"
   xmlns:svg="http://www.w3.org/2000/svg"
   xmlns="http://www.w3.org/2000/svg"
   xmlns:sodipodi="http://sodipodi.sourceforge.net/DTD/sodipodi-0.dtd"
   xmlns:inkscape="http://www.inkscape.org/namespaces/inkscape"
   width="210mm"
   height="297mm"
   viewBox="0 0 210 297"
   version="1.1"
   id="svg8"
   sodipodi:docname="skull_digifab_inkscape.svg"
   inkscape:export-filename="C:\Users\mira\utvikling\repos\DigiFab\DigiFab\prosjektfiler\Prosjekt_2\skull_digifab_inkscape.png"
   inkscape:export-xdpi="96.325302"
   inkscape:export-ydpi="96.325302"
   inkscape:version="1.0.2-2 (e86c870879, 2021-01-15)">
  <defs
     id="defs2" />
  <sodipodi:namedview
     id="base"
     pagecolor="#ffffff"
     bordercolor="#666666"
     borderopacity="1.0"
     inkscape:pageopacity="0.0"
     inkscape:pageshadow="2"
     inkscape:zoom="1.28"
     inkscape:cx="41.626691"
     inkscape:cy="392.59547"
     inkscape:document-units="mm"
     inkscape:current-layer="layer1"
     inkscape:document-rotation="0"
     showgrid="false"
     inkscape:window-width="1920"
     inkscape:window-height="1018"
     inkscape:window-x="-6"
     inkscape:window-y="-6"
     inkscape:window-maximized="1" />
  <metadata
     id="metadata5">
    <rdf:RDF>
      <cc:Work
         rdf:about="">
        <dc:format>image/svg+xml</dc:format>
        <dc:type
           rdf:resource="http://purl.org/dc/dcmitype/StillImage" />
      </cc:Work>
    </rdf:RDF>
  </metadata>
  <g
     inkscape:label="Layer 1"
     inkscape:groupmode="layer"
     id="layer1">
    <g
       id="g157"
       transform="matrix(1,0,0,0.4943613,0,45.747126)"
       inkscape:export-xdpi="96.325302"
       inkscape:export-ydpi="96.325302">
      <path
         id="rect136"
         style="color:#000000;font-style:normal;font-variant:normal;font-weight:normal;font-stretch:normal;font-size:medium;line-height:normal;font-family:sans-serif;font-variant-ligatures:normal;font-variant-position:normal;font-variant-caps:normal;font-variant-numeric:normal;font-variant-alternates:normal;font-variant-east-asian:normal;font-feature-settings:normal;font-variation-settings:normal;text-indent:0;text-align:start;text-decoration:none;text-decoration-line:none;text-decoration-style:solid;text-decoration-color:#000000;letter-spacing:normal;word-spacing:normal;text-transform:none;writing-mode:lr-tb;direction:ltr;text-orientation:mixed;dominant-baseline:auto;baseline-shift:baseline;text-anchor:start;white-space:normal;shape-padding:0;shape-margin:0;inline-size:0;clip-rule:nonzero;display:inline;overflow:visible;visibility:visible;opacity:1;isolation:auto;mix-blend-mode:normal;color-interpolation:sRGB;color-interpolation-filters:linearRGB;solid-color:#000000;solid-opacity:1;vector-effect:none;fill:#000000;fill-opacity:1;fill-rule:nonzero;stroke:none;stroke-width:0.244962;stroke-linecap:butt;stroke-linejoin:miter;stroke-miterlimit:4;stroke-dasharray:none;stroke-dashoffset:0;stroke-opacity:1;color-rendering:auto;image-rendering:auto;shape-rendering:auto;text-rendering:auto;enable-background:accumulate;stop-color:#000000;stop-opacity:1"
         d="m 49.906554,90.729111 20.980474,0.06683 c 1.149112,0.0037 1.400228,3.927893 1.429374,5.061352 -0.0067,7.746447 0.230262,14.602677 -1.563798,21.540377 l -20.980473,-0.0668 c -1.149114,-0.004 -1.98704,-0.92658 -2.063865,-2.05425 -1.081956,-15.881693 0.607526,-32.551853 0.113731,-22.506449 -0.05559,1.130892 0.935444,-2.044692 2.084557,-2.041031 z M 48.934181,14.186499 C 63.757725,2.513526 80.533861,17.03529 86.510348,47.0844 89.549013,62.362469 86.266124,76.641689 83.146823,86.737766 82.890809,95.229034 80.927114,105.85494 75.046413,100.7709 52.02163,80.865323 43.576584,111.41342 36.766329,96.621325 34.66141,92.049366 36.768511,89.166543 35.894804,84.205879 31.924865,71.919821 31.918151,54.334376 33.930083,43.77481 36.096802,32.40285 40.94277,22.052143 46.353931,16.515886" />
    </g>
    <rect
       style="fill:#ffffff;stroke-width:0.264583"
       id="rect159-7"
       width="2.7770975"
       height="8.7697811"
       x="157.92915"
       y="121.7538"
       ry="1.3885487" />
    <path
       id="path56"
       style="color:#000000;font-style:normal;font-variant:normal;font-weight:normal;font-stretch:normal;font-size:medium;line-height:normal;font-family:sans-serif;font-variant-ligatures:normal;font-variant-position:normal;font-variant-caps:normal;font-variant-numeric:normal;font-variant-alternates:normal;font-variant-east-asian:normal;font-feature-settings:normal;font-variation-settings:normal;text-indent:0;text-align:start;text-decoration:none;text-decoration-line:none;text-decoration-style:solid;text-decoration-color:#000000;letter-spacing:normal;word-spacing:normal;text-transform:none;writing-mode:lr-tb;direction:ltr;text-orientation:mixed;dominant-baseline:auto;baseline-shift:baseline;text-anchor:start;white-space:normal;shape-padding:0;shape-margin:0;inline-size:0;clip-rule:nonzero;display:inline;overflow:visible;visibility:visible;opacity:1;isolation:auto;mix-blend-mode:normal;color-interpolation:sRGB;color-interpolation-filters:linearRGB;solid-color:#000000;solid-opacity:1;vector-effect:none;fill:#ffffff;fill-opacity:1;fill-rule:nonzero;stroke:none;stroke-width:1.15081;stroke-linecap:butt;stroke-linejoin:miter;stroke-miterlimit:4;stroke-dasharray:none;stroke-dashoffset:0;stroke-opacity:1;color-rendering:auto;image-rendering:auto;shape-rendering:auto;text-rendering:auto;enable-background:accumulate;stop-color:#000000;stop-opacity:1"
       d="M 159.83789 266.24023 C 157.38269 266.17544 154.91883 266.66832 152.41797 267.87109 L 150.13281 269.15039 C 137.76064 277.13669 136.12685 296.37644 146.45117 312.49805 C 156.7755 328.61966 175.27044 335.70603 188.15625 328.52539 C 201.06953 321.32943 230.00315 310.35336 193.84961 285.94922 C 180.97664 277.25979 170.47711 266.52101 159.83789 266.24023 z M 294.35547 267.62695 C 284.08155 267.74947 273.03548 277.06275 259.9707 284.29688 C 221.81077 305.42647 249.66619 318.90511 261.89648 327.20898 C 274.10077 335.49519 293.1473 330.06509 304.84961 314.91406 C 316.55193 299.76304 316.6159 280.45177 304.99414 271.4082 L 302.83008 269.93164 C 300.04714 268.27721 297.23216 267.59265 294.35547 267.62695 z M 223.82812 328.62695 C 221.66716 328.62288 219.66766 329.07129 218.11914 330.02344 L 217.04492 330.77539 C 211.15955 335.41791 205.18306 349.34939 208.96875 357.70898 C 212.51599 365.54202 223.97988 346.90552 227.28516 351.24805 C 229.23422 354.75753 247.7971 374.50208 239.80469 339.55078 C 238.24481 332.72939 230.31109 328.63918 223.82812 328.62695 z M 185.23438 376.96094 C 182.32695 376.96094 179.98633 379.30156 179.98633 382.20898 L 179.98633 393.75 L 224.73242 393.75 L 224.73242 382.20898 C 224.73242 379.30156 222.39178 376.96094 219.48438 376.96094 L 216.72266 376.96094 C 213.81523 376.96094 211.47461 379.30156 211.47461 382.20898 C 211.47461 379.30156 209.13399 376.96094 206.22656 376.96094 C 203.31914 376.96094 200.97852 379.30156 200.97852 382.20898 C 200.97852 379.30156 198.63789 376.96094 195.73047 376.96094 C 192.82304 376.96094 190.48242 379.30156 190.48242 382.20898 C 190.48242 379.30156 188.14178 376.96094 185.23438 376.96094 z M 230.23438 377.32812 C 227.32695 377.32812 224.98633 379.66875 224.98633 382.57617 L 224.98633 393.75 L 271.39062 393.75 L 271.39062 382.57617 C 271.39062 379.66875 269.05 377.32813 266.14258 377.32812 C 263.23515 377.32812 260.89453 379.66875 260.89453 382.57617 C 260.89453 379.66875 258.55391 377.32813 255.64648 377.32812 C 252.73906 377.32812 250.39844 379.66875 250.39844 382.57617 C 250.39844 379.66875 248.05781 377.32813 245.15039 377.32812 L 242.94141 377.32812 C 240.03398 377.32812 237.69336 379.66875 237.69336 382.57617 C 237.69336 379.66875 235.35274 377.32813 232.44531 377.32812 L 230.23438 377.32812 z "
       transform="scale(0.26458333)"
       inkscape:export-xdpi="96.325302"
       inkscape:export-ydpi="96.325302" />
  </g>
</svg>
